#N canvas 180 94 930 740 12;
#X obj 100 269 tgl 19 0 empty empty empty 0 -10 0 12 #fcfcfc #000000 #000000 0 1;
#X obj 100 102 vsl 19 162 0 1 0 0 empty empty empty 0 -9 0 12 #fcfcfc #000000 #000000 0 1;
#X obj 42 64 inlet~;
#X obj 44 247 *~;
#X obj 44 290 *~;
#X obj 44 341 outlet~;
#X obj 145 208 loadbang;
#X msg 153 241 1;
#X obj 130 61 float \$1;
#X obj 130 28 loadbang;
#X obj 262 72 bng 19 250 50 0 empty empty empty 0 -10 0 12 #fcfcfc #000000 #000000;
#X obj 260 253 bng 19 250 50 0 empty empty empty 0 -10 0 12 #fcfcfc #000000 #000000;
#X obj 260 114 send \$0-vl;
#X obj 263 208 r \$0-vl;
#X connect 0 0 4 1;
#X connect 1 0 3 1;
#X connect 2 0 3 0;
#X connect 3 0 4 0;
#X connect 4 0 5 0;
#X connect 6 0 7 0;
#X connect 7 0 0 0;
#X connect 8 0 1 0;
#X connect 9 0 8 0;
#X connect 10 0 12 0;
#X connect 13 0 11 0;
#X coords 0 -1 1 1 20 190 2 100 100;
