#N canvas 304 124 1920 997 12;
#X obj 1138 660 dac~;
#X obj 19 111 i;
#X obj 58 110 + 1;
#X obj 98 109 % 16;
#X obj 19 17 tgl 19 0 empty empty empty 0 -10 0 12 #fcfcfc #000000 #000000 0 1;
#X floatatom 19 150 5 0 0 0 - - - 0;
#X obj 19 189 s beat;
#X text 1768 259 smaple hold freqz;
#X text 1326 123 12 個音, f 6;
#X text 1394 124 8 度;
#X text 1788 229 adsr;
#X text 758 20 c c# d d# e f f# g g# a a# .b;
#X text 759 7 0 1 /2 3 /4 5 6 /7 8 /9 10 11;
#X obj 326 85 pushLine left_1;
#X obj 326 111 pushLine left_2;
#X obj 325 135 pushLine left_3;
#X obj 324 157 pushLine left_4;
#X obj 324 182 pushLine left_5;
#X obj 325 236 pushLine right_1;
#X obj 324 261 pushLine right_2;
#X obj 326 290 pushLine right_3;
#X obj 326 315 pushLine right_4;
#X obj 327 343 pushLine right_5;
#X text 693 83 left 1;
#X text 693 110 left 2;
#X text 694 135 left 3;
#X text 692 158 left 4;
#X text 696 183 left 5;
#X text 696 236 right 1;
#X text 697 261 right 2;
#X text 697 289 right 3;
#X text 695 315 right 4;
#X text 697 342 right 5;
#X text 319 57 Paino left hand;
#X text 322 212 Paino right hand;
#X obj 1518 311 paino_one_hand;
#X obj 1475 154 r right_1;
#X obj 1552 154 r right_2;
#X obj 1629 153 r right_3;
#X obj 1702 154 r right_4;
#X obj 1777 155 r right_5;
#X msg 1697 230 0 50 0.6 80;
#X msg 1387 147 5 6 5 5 0;
#X msg 1308 147 0 0 7 4 0;
#X msg 1745 200 40 10 0.8 100;
#X text 1151 260 smaple hold freqz;
#X text 764 176 12 個音;
#X text 832 177 8 度;
#X text 1171 230 adsr;
#X obj 939 292 paino_one_hand;
#X msg 1080 231 0 50 0.6 80;
#X msg 1128 201 40 10 0.8 100;
#X obj 858 155 r left_1;
#X obj 935 155 r left_2;
#X obj 1012 154 r left_3;
#X obj 1085 155 r left_4;
#X obj 1160 156 r left_5;
#X obj 1285 38 bng 19 250 50 0 empty empty empty 0 -10 0 12 #fcfcfc #000000 #000000;
#X msg 849 198 3 3 2 2 2;
#X msg 1117 260 4000;
#X msg 1734 259 4000;
#X obj 42 320 s m1;
#X obj 1059 42 r m1;
#X msg 749 197 0 7 7 4 0;
#X msg 1311 177 1 1 8 5 1;
#X msg 755 228 1 8 7 5 1;
#X obj 19 65 metro 150;
#X obj 1362 468 bin2int;
#X obj 1362 496 s left_1-preset;
#X obj 1409 523 bin2int;
#X obj 1480 466 bin2int;
#X obj 1527 519 bin2int;
#X obj 1596 463 bin2int;
#X obj 1409 551 s left_2-preset;
#X obj 1480 494 s left_3-preset;
#X obj 1527 547 s left_4-preset;
#X obj 1596 491 s left_5-preset;
#X obj 1376 622 bin2int;
#X obj 1424 680 bin2int;
#X obj 1503 621 bin2int;
#X obj 1549 679 bin2int;
#X obj 1632 619 bin2int;
#X obj 1376 650 s right_1-preset;
#X obj 1424 708 s right_2-preset;
#X obj 1503 649 s right_3-preset;
#X obj 1549 707 s right_4-preset;
#X obj 1632 647 s right_5-preset;
#X msg 2 529 0 0 0 0 0 0 0 0 0 0 0 0 0 0 0 0;
#X msg 2 557 0 0 0 0 0 0 0 0 0 0 0 0 0 0 0 0;
#X msg 5 584 0 0 0 0 0 0 0 0 0 0 0 0 0 0 0 0;
#X obj 209 422 bng 19 250 50 0 empty empty empty 0 -10 0 12 #fcfcfc #000000 #000000;
#X obj 633 419 bng 19 250 50 0 empty empty empty 0 -10 0 12 #fcfcfc #000000 #000000;
#X msg 2 478 1 0 0 0 0 0 0 0 1 0 0 0 1 0 0 0;
#X msg 242 478 1 0 0 0 0 0 0 0 0 0 0 0 0 0 0 0;
#X msg 244 530 0 0 0 0 1 0 0 0 0 0 1 0 0 0 0 0;
#X msg 245 504 0 0 1 0 0 0 0 0 1 0 0 0 0 0 0 0;
#X msg 245 555 0 0 0 0 0 0 1 0 0 0 0 0 1 0 0 0;
#X obj 122 136 sel 0;
#X msg 91 163 0;
#X obj 122 163 i;
#X obj 152 163 + 1;
#X floatatom 188 164 5 0 0 0 - - - 0;
#X obj 84 232 pack f f;
#X obj 80 194 t b f;
#X obj 74 269 route 0 1 2 3;
#X msg 1310 204 4 5 7 9 11;
#X obj 209 387 r m1;
#X obj 89 323 s m2;
#X obj 986 45 r m2;
#X obj 133 323 s m4;
#X obj 1134 41 r m4;
#X msg 772 524 0 0 0 0 0 0 1 0 1 0 0 0 0 0 0 0;
#X msg 247 582 0 0 0 0 0 0 0 0 0 0 0 0 0 0 0 0;
#X obj 633 384 r m4;
#X msg 754 258 7 9 11 0 0;
#X msg 847 260 2 2 2 3 6;
#X msg 2 504 0 0 0 0 0 0 1 0 0 0 0 0 0 0 0 0;
#X msg 530 480 1 0 0 0 0 0 0 0 0 0 0 0 0 0 0 0;
#X msg 531 501 0 0 0 0 1 0 0 0 0 0 0 0 0 0 0 0;
#X msg 531 522 0 0 0 0 0 0 0 0 1 0 0 0 0 0 0 0;
#X msg 531 545 0 0 0 0 0 0 0 0 0 0 0 0 1 0 0 0;
#X msg 774 546 0 0 0 0 0 0 0 0 0 1 0 0 0 0 0 0;
#X msg 774 568 0 0 0 0 0 0 0 0 0 0 1 0 0 0 0 0;
#X msg 531 567 0 0 0 0 0 0 0 0 0 0 0 0 1 0 0 0;
#X msg 771 480 1 1 0 0 0 0 0 0 0 0 0 0 0 0 0 0;
#X msg 772 503 0 0 1 0 1 1 0 0 0 0 0 0 0 0 0 0;
#X obj 1362 432 r l_1;
#X obj 1407 431 r l_2;
#X obj 1452 431 r l_3;
#X obj 1496 431 r l_4;
#X obj 1539 430 r l_5;
#X obj 1375 582 r r_1;
#X obj 1420 581 r r_2;
#X obj 1465 581 r r_3;
#X obj 1509 581 r r_4;
#X obj 1552 580 r r_5;
#X obj 108 675 s l_1;
#X obj 153 674 s l_2;
#X obj 198 674 s l_3;
#X obj 242 674 s l_4;
#X obj 285 673 s l_5;
#X obj 511 678 s r_1;
#X obj 556 677 s r_2;
#X obj 601 677 s r_3;
#X obj 645 677 s r_4;
#X obj 688 676 s r_5;
#X obj 1164 626 *~;
#X obj 1185 548 hsl 162 19 0 1 0 1 empty empty empty -2 -10 0 12 #fcfcfc #000000 #000000 8050 1;
#X obj 1134 594 expr 1-$f1;
#X obj 1124 625 *~;
#X msg 1182 512 0.5;
#X msg 77 18 75;
#X msg 123 18 150;
#N canvas 309 403 450 300 highpitch 0;
#X obj 82 39 inlet;
#X obj 82 78 unpack f f f f f;
#X obj 61 130 + 1;
#X obj 93 131 + 1;
#X obj 128 131 + 1;
#X obj 164 127 + 1;
#X obj 198 126 + 1;
#X obj 79 200 pack f f f f f;
#X obj 84 247 outlet;
#X obj 304 14 inlet;
#X obj 240 116 spigot;
#X msg 272 83 1;
#X msg 316 83 0;
#X obj 323 117 spigot;
#X msg 355 83 1;
#X msg 399 83 0;
#X obj 290 49 sel 1, f 7;
#X connect 0 0 10 0;
#X connect 0 0 13 0;
#X connect 1 0 2 0;
#X connect 1 1 3 0;
#X connect 1 2 4 0;
#X connect 1 3 5 0;
#X connect 1 4 6 0;
#X connect 2 0 7 0;
#X connect 3 0 7 1;
#X connect 4 0 7 2;
#X connect 5 0 7 3;
#X connect 6 0 7 4;
#X connect 7 0 8 0;
#X connect 9 0 16 0;
#X connect 10 0 1 0;
#X connect 11 0 10 1;
#X connect 12 0 13 1;
#X connect 13 0 8 0;
#X connect 14 0 13 1;
#X connect 15 0 10 1;
#X connect 16 0 11 0;
#X connect 16 1 14 0;
#X connect 16 1 15 0;
#X restore 841 293 pd highpitch;
#X msg 141 60 1;
#X msg 202 62 0;
#X obj 155 102 s h_pitch;
#X obj 847 347 r h_pitch;
#N canvas 309 403 450 300 highpitch 0;
#X obj 82 39 inlet;
#X obj 82 78 unpack f f f f f;
#X obj 61 130 + 1;
#X obj 93 131 + 1;
#X obj 128 131 + 1;
#X obj 164 127 + 1;
#X obj 198 126 + 1;
#X obj 79 200 pack f f f f f;
#X obj 84 247 outlet;
#X obj 304 14 inlet;
#X obj 240 116 spigot;
#X msg 272 83 1;
#X msg 316 83 0;
#X obj 323 117 spigot;
#X msg 355 83 1;
#X msg 399 83 0;
#X obj 290 49 sel 1, f 7;
#X connect 0 0 10 0;
#X connect 0 0 13 0;
#X connect 1 0 2 0;
#X connect 1 1 3 0;
#X connect 1 2 4 0;
#X connect 1 3 5 0;
#X connect 1 4 6 0;
#X connect 2 0 7 0;
#X connect 3 0 7 1;
#X connect 4 0 7 2;
#X connect 5 0 7 3;
#X connect 6 0 7 4;
#X connect 7 0 8 0;
#X connect 9 0 16 0;
#X connect 10 0 1 0;
#X connect 11 0 10 1;
#X connect 12 0 13 1;
#X connect 13 0 8 0;
#X connect 14 0 13 1;
#X connect 15 0 10 1;
#X connect 16 0 11 0;
#X connect 16 1 14 0;
#X connect 16 1 15 0;
#X restore 1393 197 pd highpitch;
#X obj 1471 87 r h_pitch;
#X obj 1129 442 *~ 0.5;
#X obj 239 244 print;
#X obj 218 10 r background;
#X obj 1197 2 r background;
#X connect 1 0 5 0;
#X connect 1 0 2 0;
#X connect 2 0 3 0;
#X connect 3 0 1 1;
#X connect 4 0 66 0;
#X connect 4 0 98 0;
#X connect 4 0 152 0;
#X connect 5 0 6 0;
#X connect 5 0 97 0;
#X connect 5 0 103 0;
#X connect 35 0 160 0;
#X connect 35 1 160 0;
#X connect 35 2 160 0;
#X connect 35 3 160 0;
#X connect 35 4 160 0;
#X connect 36 0 35 2;
#X connect 37 0 35 3;
#X connect 38 0 35 4;
#X connect 39 0 35 5;
#X connect 40 0 35 6;
#X connect 41 0 35 7;
#X connect 42 0 158 0;
#X connect 43 0 35 0;
#X connect 44 0 35 7;
#X connect 49 0 160 0;
#X connect 49 1 160 0;
#X connect 49 2 160 0;
#X connect 49 3 160 0;
#X connect 49 4 160 0;
#X connect 50 0 49 7;
#X connect 51 0 49 7;
#X connect 52 0 49 2;
#X connect 53 0 49 3;
#X connect 54 0 49 4;
#X connect 55 0 49 5;
#X connect 56 0 49 6;
#X connect 57 0 63 0;
#X connect 57 0 58 0;
#X connect 57 0 50 0;
#X connect 57 0 59 0;
#X connect 57 0 43 0;
#X connect 57 0 42 0;
#X connect 57 0 41 0;
#X connect 57 0 60 0;
#X connect 57 0 150 0;
#X connect 58 0 153 0;
#X connect 59 0 49 8;
#X connect 60 0 35 8;
#X connect 62 0 63 0;
#X connect 62 0 58 0;
#X connect 62 0 43 0;
#X connect 62 0 42 0;
#X connect 63 0 49 0;
#X connect 64 0 35 0;
#X connect 65 0 49 0;
#X connect 66 0 1 0;
#X connect 67 0 68 0;
#X connect 69 0 73 0;
#X connect 70 0 74 0;
#X connect 71 0 75 0;
#X connect 72 0 76 0;
#X connect 77 0 82 0;
#X connect 78 0 83 0;
#X connect 79 0 84 0;
#X connect 80 0 85 0;
#X connect 81 0 86 0;
#X connect 87 0 138 0;
#X connect 88 0 139 0;
#X connect 89 0 140 0;
#X connect 90 0 92 0;
#X connect 90 0 116 0;
#X connect 90 0 96 0;
#X connect 90 0 87 0;
#X connect 90 0 88 0;
#X connect 90 0 89 0;
#X connect 90 0 112 0;
#X connect 90 0 94 0;
#X connect 90 0 95 0;
#X connect 90 0 93 0;
#X connect 91 0 125 0;
#X connect 91 0 111 0;
#X connect 91 0 121 0;
#X connect 91 0 122 0;
#X connect 91 0 117 0;
#X connect 91 0 118 0;
#X connect 91 0 119 0;
#X connect 91 0 120 0;
#X connect 91 0 123 0;
#X connect 91 0 124 0;
#X connect 92 0 136 0;
#X connect 93 0 141 0;
#X connect 94 0 143 0;
#X connect 95 0 142 0;
#X connect 96 0 144 0;
#X connect 97 0 99 0;
#X connect 98 0 99 0;
#X connect 99 0 100 0;
#X connect 99 0 101 0;
#X connect 99 0 102 0;
#X connect 100 0 99 1;
#X connect 102 0 104 0;
#X connect 103 0 102 0;
#X connect 103 1 102 1;
#X connect 104 0 61 0;
#X connect 104 1 107 0;
#X connect 104 2 61 0;
#X connect 104 3 109 0;
#X connect 104 4 98 0;
#X connect 105 0 35 0;
#X connect 106 0 90 0;
#X connect 108 0 64 0;
#X connect 108 0 65 0;
#X connect 108 0 42 0;
#X connect 110 0 105 0;
#X connect 110 0 114 0;
#X connect 110 0 115 0;
#X connect 110 0 42 0;
#X connect 111 0 143 0;
#X connect 112 0 145 0;
#X connect 113 0 91 0;
#X connect 114 0 49 0;
#X connect 115 0 153 0;
#X connect 116 0 137 0;
#X connect 117 0 136 0;
#X connect 118 0 137 0;
#X connect 119 0 138 0;
#X connect 120 0 139 0;
#X connect 121 0 144 0;
#X connect 122 0 145 0;
#X connect 123 0 140 0;
#X connect 124 0 141 0;
#X connect 125 0 142 0;
#X connect 126 0 67 0;
#X connect 127 0 69 0;
#X connect 128 0 70 0;
#X connect 129 0 71 0;
#X connect 130 0 72 0;
#X connect 131 0 77 0;
#X connect 132 0 78 0;
#X connect 133 0 79 0;
#X connect 134 0 80 0;
#X connect 135 0 81 0;
#X connect 146 0 0 1;
#X connect 147 0 146 1;
#X connect 147 0 148 0;
#X connect 148 0 149 1;
#X connect 149 0 0 0;
#X connect 150 0 147 0;
#X connect 151 0 66 1;
#X connect 151 0 154 0;
#X connect 152 0 66 1;
#X connect 152 0 155 0;
#X connect 153 0 49 1;
#X connect 154 0 156 0;
#X connect 155 0 156 0;
#X connect 157 0 153 1;
#X connect 158 0 35 1;
#X connect 159 0 158 1;
#X connect 160 0 149 0;
#X connect 160 0 146 0;
#X connect 162 0 66 0;
#X connect 162 0 98 0;
#X connect 162 0 152 0;
#X connect 162 0 161 0;
#X connect 163 0 57 0;
