#N canvas 158 105 1920 997 12;
#X obj 1272 626 dac~;
#X obj 19 111 i;
#X obj 58 110 + 1;
#X obj 98 109 % 16;
#X obj 19 17 tgl 19 0 empty empty empty 0 -10 0 12 #fcfcfc #000000 #000000 0 1;
#X floatatom 19 150 5 0 0 0 - - - 0;
#X obj 19 189 s beat;
#X floatatom 78 27 5 0 0 0 - - - 0;
#X text 16 498 Drum;
#X obj 20 545 pushLine sig-snare;
#X obj 21 577 pushLine sig-bassdrum;
#X obj 20 605 pushLine sig-hat;
#X obj 24 701 snare;
#X obj 25 729 gain;
#X obj 24 660 r sig-snare;
#X obj 114 731 gain;
#X obj 223 730 gain;
#X obj 114 660 r sig-bassdrum;
#X obj 114 701 bassdrum;
#X obj 223 701 hat;
#X obj 223 660 r sig-hat;
#X obj 1273 415 gain;
#X obj 112 146 i;
#X obj 151 145 + 1;
#X floatatom 112 177 5 0 0 0 - - - 0;
#X obj 191 144 % 4;
#X text 1768 259 smaple hold freqz;
#X text 1381 175 12 個音;
#X text 1449 176 8 度;
#X text 1788 229 adsr;
#X text 391 544 snare;
#X text 392 577 bassdrum;
#X text 395 608 hat;
#X text 758 20 c c# d d# e f f# g g# a a# .b;
#X text 759 7 0 1 /2 3 /4 5 6 /7 8 /9 10 11;
#X obj 266 47 pushLine left_1;
#X obj 266 73 pushLine left_2;
#X obj 265 97 pushLine left_3;
#X obj 264 119 pushLine left_4;
#X obj 264 144 pushLine left_5;
#X obj 265 198 pushLine right_1;
#X obj 265 223 pushLine right_2;
#X obj 266 252 pushLine right_3;
#X obj 266 277 pushLine right_4;
#X obj 267 303 pushLine right_5;
#X text 633 45 left 1;
#X text 633 72 left 2;
#X text 634 97 left 3;
#X text 632 120 left 4;
#X text 636 145 left 5;
#X text 636 198 right 1;
#X text 637 223 right 2;
#X text 637 251 right 3;
#X text 635 277 right 4;
#X text 637 304 right 5;
#X text 259 19 Paino left hand;
#X text 262 174 Paino right hand;
#X obj 1556 302 paino_one_hand;
#X obj 1475 154 r right_1;
#X obj 1552 154 r right_2;
#X obj 1629 153 r right_3;
#X obj 1702 154 r right_4;
#X obj 1777 155 r right_5;
#X msg 1697 230 0 50 0.6 80;
#X msg 1445 196 5 6 5 5 0;
#X msg 1366 196 0 0 7 4 0;
#X msg 1745 200 40 10 0.8 100;
#X text 1151 260 smaple hold freqz;
#X text 764 176 12 個音;
#X text 832 177 8 度;
#X text 1171 230 adsr;
#X obj 939 292 paino_one_hand;
#X msg 1080 231 0 50 0.6 80;
#X msg 1128 201 40 10 0.8 100;
#X obj 858 155 r left_1;
#X obj 935 155 r left_2;
#X obj 1012 154 r left_3;
#X obj 1085 155 r left_4;
#X obj 1160 156 r left_5;
#X obj 1285 38 bng 19 250 50 0 empty empty empty 0 -10 0 12 #fcfcfc #000000 #000000;
#X msg 828 197 3 3 2 2 2;
#X msg 1117 260 4000;
#X msg 1734 259 4000;
#X obj 104 228 sel 0 8;
#X obj 66 289 s m1;
#X obj 131 290 s m2;
#X obj 1017 43 r m1;
#X obj 1073 43 r m2;
#X msg 749 197 0 7 7 4 0;
#X msg 1377 253 1 1 8 5 1;
#X msg 755 244 1 8 7 5 1;
#X obj 19 65 metro 150;
#X connect 1 0 5 0;
#X connect 1 0 2 0;
#X connect 2 0 3 0;
#X connect 3 0 1 1;
#X connect 4 0 91 0;
#X connect 5 0 6 0;
#X connect 5 0 83 0;
#X connect 7 0 91 1;
#X connect 12 0 13 0;
#X connect 14 0 12 0;
#X connect 17 0 18 0;
#X connect 18 0 15 0;
#X connect 19 0 16 0;
#X connect 20 0 19 0;
#X connect 21 0 0 0;
#X connect 22 0 23 0;
#X connect 22 0 24 0;
#X connect 23 0 25 0;
#X connect 25 0 22 1;
#X connect 57 0 21 0;
#X connect 57 1 21 0;
#X connect 57 2 21 0;
#X connect 57 3 21 0;
#X connect 57 4 21 0;
#X connect 58 0 57 2;
#X connect 59 0 57 3;
#X connect 60 0 57 4;
#X connect 61 0 57 5;
#X connect 62 0 57 6;
#X connect 63 0 57 7;
#X connect 64 0 57 1;
#X connect 65 0 57 0;
#X connect 66 0 57 7;
#X connect 71 0 21 0;
#X connect 71 1 21 0;
#X connect 71 2 21 0;
#X connect 71 3 21 0;
#X connect 71 4 21 0;
#X connect 72 0 71 7;
#X connect 73 0 71 7;
#X connect 74 0 71 2;
#X connect 75 0 71 3;
#X connect 76 0 71 4;
#X connect 77 0 71 5;
#X connect 78 0 71 6;
#X connect 79 0 88 0;
#X connect 79 0 80 0;
#X connect 79 0 72 0;
#X connect 79 0 81 0;
#X connect 79 0 65 0;
#X connect 79 0 64 0;
#X connect 79 0 63 0;
#X connect 79 0 82 0;
#X connect 80 0 71 1;
#X connect 81 0 71 8;
#X connect 82 0 57 8;
#X connect 83 0 84 0;
#X connect 83 1 85 0;
#X connect 86 0 88 0;
#X connect 86 0 80 0;
#X connect 86 0 65 0;
#X connect 86 0 64 0;
#X connect 87 0 89 0;
#X connect 87 0 90 0;
#X connect 88 0 71 0;
#X connect 89 0 57 0;
#X connect 90 0 71 0;
#X connect 91 0 1 0;
#X connect 91 0 22 0;
